<svg width="32" height="29" viewBox="0 0 32 29" fill="none" xmlns="http://www.w3.org/2000/svg">
<g filter="url(#filter0_d_4041_304)">
<path d="M7 21C6.45 21 5.97917 20.8042 5.5875 20.4125C5.19583 20.0208 5 19.55 5 19V7C5 6.71667 5.09583 6.47917 5.2875 6.2875C5.47917 6.09583 5.71667 6 6 6C6.28333 6 6.52083 6.09583 6.7125 6.2875C6.90417 6.47917 7 6.71667 7 7V19H23C23.2833 19 23.5208 19.0958 23.7125 19.2875C23.9042 19.4792 24 19.7167 24 20C24 20.2833 23.9042 20.5208 23.7125 20.7125C23.5208 20.9042 23.2833 21 23 21H7ZM11 17C10.45 17 9.97917 16.8042 9.5875 16.4125C9.19583 16.0208 9 15.55 9 15V4C9 3.45 9.19583 2.97917 9.5875 2.5875C9.97917 2.19583 10.45 2 11 2H15.175C15.4417 2 15.6958 2.05 15.9375 2.15C16.1792 2.25 16.3917 2.39167 16.575 2.575L18 4H25C25.55 4 26.0208 4.19583 26.4125 4.5875C26.8042 4.97917 27 5.45 27 6V15C27 15.55 26.8042 16.0208 26.4125 16.4125C26.0208 16.8042 25.55 17 25 17H11Z" fill="white"/>
</g>
<defs>
<filter id="filter0_d_4041_304" x="0" y="0" width="32" height="29" filterUnits="userSpaceOnUse" color-interpolation-filters="sRGB">
<feFlood flood-opacity="0" result="BackgroundImageFix"/>
<feColorMatrix in="SourceAlpha" type="matrix" values="0 0 0 0 0 0 0 0 0 0 0 0 0 0 0 0 0 0 127 0" result="hardAlpha"/>
<feOffset dy="3"/>
<feGaussianBlur stdDeviation="2.5"/>
<feComposite in2="hardAlpha" operator="out"/>
<feColorMatrix type="matrix" values="0 0 0 0 0 0 0 0 0 0 0 0 0 0 0 0 0 0 0.6 0"/>
<feBlend mode="normal" in2="BackgroundImageFix" result="effect1_dropShadow_4041_304"/>
<feBlend mode="normal" in="SourceGraphic" in2="effect1_dropShadow_4041_304" result="shape"/>
</filter>
</defs>
</svg>
