<svg width="41" height="30" viewBox="0 0 41 30" fill="none" xmlns="http://www.w3.org/2000/svg">
<path d="M14.0211 23.4521L36.4925 0.801782C37.0228 0.267261 37.6414 0 38.3485 0C39.0556 0 39.6743 0.267261 40.2046 0.801782C40.7349 1.3363 41 1.97105 41 2.70601C41 3.44098 40.7349 4.07572 40.2046 4.61024L15.8771 29.1982C15.3468 29.7327 14.7281 30 14.0211 30C13.314 30 12.6953 29.7327 12.165 29.1982L0.763629 17.706C0.233331 17.1715 -0.02077 16.5367 0.00132575 15.8018C0.0234215 15.0668 0.299619 14.4321 0.829917 13.8976C1.36021 13.363 1.98994 13.0958 2.7191 13.0958C3.44826 13.0958 4.07799 13.363 4.60829 13.8976L14.0211 23.4521Z" fill="#81FF85"/>
</svg>
